<?xml version="1.0" encoding="UTF-8" standalone="no"?>
<svg
   xmlns:dc="http://purl.org/dc/elements/1.1/"
   xmlns:cc="http://creativecommons.org/ns#"
   xmlns:rdf="http://www.w3.org/1999/02/22-rdf-syntax-ns#"
   xmlns:svg="http://www.w3.org/2000/svg"
   xmlns="http://www.w3.org/2000/svg"
   xmlns:sodipodi="http://sodipodi.sourceforge.net/DTD/sodipodi-0.dtd"
   xmlns:inkscape="http://www.inkscape.org/namespaces/inkscape"
   version="1.1"
   width="55"
   height="55"
   viewBox="0 0 55 55"
   id="Icon"
   xml:space="preserve"
   style="overflow:visible"
   inkscape:version="0.48.4 r9939"
   sodipodi:docname="sources.svg"><metadata
     id="metadata4064"><rdf:RDF><cc:Work
         rdf:about=""><dc:format>image/svg+xml</dc:format><dc:type
           rdf:resource="http://purl.org/dc/dcmitype/StillImage" /><dc:title></dc:title></cc:Work></rdf:RDF></metadata><defs
     id="defs4062" /><sodipodi:namedview
     pagecolor="#ffffff"
     bordercolor="#666666"
     borderopacity="1"
     objecttolerance="10"
     gridtolerance="10"
     guidetolerance="10"
     inkscape:pageopacity="0"
     inkscape:pageshadow="2"
     inkscape:window-width="1327"
     inkscape:window-height="837"
     id="namedview4060"
     showgrid="false"
     inkscape:zoom="4.2909091"
     inkscape:cx="-16.197034"
     inkscape:cy="27.5"
     inkscape:window-x="0"
     inkscape:window-y="0"
     inkscape:window-maximized="0"
     inkscape:current-layer="Icon" /><circle
     d="m 37.481,10.96 c 0,0.925629 -0.75037,1.676 -1.676,1.676 -0.925629,0 -1.676,-0.750371 -1.676,-1.676 0,-0.925629 0.750371,-1.676 1.676,-1.676 0.92563,0 1.676,0.750371 1.676,1.676 z"
     sodipodi:ry="1.676"
     sodipodi:rx="1.676"
     sodipodi:cy="10.96"
     sodipodi:cx="35.805"
     cx="35.805"
     cy="10.96"
     r="1.676"
     transform="matrix(1.0768981,0,0,0.95323745,-1.231414,0.59611067)"
     id="circle2478"
     style="fill:none;stroke-width:3.42034841;stroke-miterlimit:4;stroke-dasharray:none" /><g
     transform="matrix(1.6221926,0,0,1.5426114,-16.879002,-15.543157)"
     id="g4709"
     style="fill:#000000;fill-opacity:1;stroke:#ffffff;stroke-opacity:1;stroke-width:1.88507296;stroke-miterlimit:4;stroke-dasharray:none"><path
       inkscape:connector-curvature="0"
       d="m 28.090497,40.381834 c 3.974667,-0.06221 9.878139,-1.753708 9.878139,-6.911631 0,-5.73755 -4.497322,-6.751378 -6.645938,-7.265877 -2.341015,-0.560569 -4.551388,-0.765446 -4.645545,-1.7177 -0.161426,-1.632578 0.768742,-2.268447 2.619566,-2.268447 0,0 4.402457,2.26367 8.142826,0.457274 1.05398,-0.509016 2.942197,-2.884533 2.942197,-4.523303 0,-1.639388 -6.094837,-3.533985 -7.944332,-3.533985 -1.850824,0 -3.424821,2.377206 -3.424821,2.377206 -3.700318,0 -7.401302,3.278776 -7.401302,6.557553 0,3.278158 3.417627,6.165937 7.653709,6.85261 1.962616,0.318142 3.729994,1.076753 3.3563,3.065286 -0.303435,1.614661 -1.696316,2.770905 -5.258386,2.736319 -2.749295,-0.02669 -6.417645,0.138525 -8.840139,-1.714654 -1.314772,-1.005784 -1.146531,-3.578075 -1.146531,-3.578075 0,0 -3.4034,0.162415 -2.757976,3.376412 0.965274,4.806741 6.251099,6.204027 13.472233,6.091012 z"
       id="path2474-6"
       style="fill:#000000;fill-opacity:1;stroke:#ffffff;stroke-opacity:1;stroke-width:1.88507296;stroke-miterlimit:4;stroke-dasharray:none" /><path
       inkscape:connector-curvature="0"
       d="M 37.438881,22.676071 C 35.697593,22.498722 33.050146,21.440194 32.481887,19.572788"
       id="path2476-1"
       style="fill:#000000;fill-opacity:1;stroke:#ffffff;stroke-opacity:1;stroke-width:1.88507296;stroke-miterlimit:4;stroke-dasharray:none" /><circle
       sodipodi:ry="1.676"
       sodipodi:rx="1.676"
       sodipodi:cy="10.96"
       sodipodi:cx="35.805"
       cx="35.805"
       cy="10.96"
       r="1.676"
       transform="matrix(0.3489205,0,0,0.32478716,20.448838,13.620467)"
       id="circle2478-8"
       style="fill:#000000;fill-opacity:1;stroke:#ffffff;stroke-opacity:1;stroke-width:5.59970946;stroke-miterlimit:4;stroke-dasharray:none"
       d="m 37.481,10.96 c 0,0.925629 -0.75037,1.676 -1.676,1.676 -0.925629,0 -1.676,-0.750371 -1.676,-1.676 0,-0.925629 0.750371,-1.676 1.676,-1.676 0.92563,0 1.676,0.750371 1.676,1.676 z" /></g></svg>